{
  "title": "Captain America Civil War (2016) 720p[Dual Audio]",
  "uid": 15878863,
  "size": 3511034332,
  "categoryP": "video",
  "categoryS": "hd___movies",
  "magnet": "?xt=urn:btih:e95e45b9adb6d6b5366b092654bc1bfe49facc20&amp;dn=Captain+America+Civil+War+%282016%29+720p%5BDual+Audio%5D&amp;tr=udp%3A%2F%2Ftracker.leechers-paradise.org%3A6969&amp;tr=udp%3A%2F%2Fzer0day.ch%3A1337&amp;tr=udp%3A%2F%2Fopen.demonii.com%3A1337&amp;tr=udp%3A%2F%2Ftracker.coppersurfer.tk%3A6969&amp;tr=udp%3A%2F%2Fexodus.desync.com%3A6969",
  "seeders": 38,
  "leechers": 66,
  "uploader": "SaM",
  "files": 3,
  "time": 1474566114,
  "description": "Captain America Civil War (2016) 1080p[Dual Audio][ENG(5.1)-HINDI(5.1)]~{PHDR}~ \n\n\nVideo\nID : 1\nFormat : AVC\nFormat/Info : Advanced Video Codec\nFormat profile :   \nFormat settings, CABAC : Yes\nFormat settings, ReFrames : 5 frames\nCodec ID : V_MPEG4/ISO/AVC\nDuration : 2h 27mn\nBit rate : 3 900 Kbps\nWidth : 1 920 pixels\nHeight : 804 pixels\nDisplay aspect ratio : 2.40:1\nFrame rate mode : Constant\nFrame rate : 23.976 (24000/1001) fps\nColor space : YUV\nChroma subsampling : 4:2:0\nBit depth : 8 bits\nScan type : Progressive\nBits/(Pixel*Frame) : 0.105\nStream size : 4.02 GiB (75%)\nTitle : x264, 1080p24\nLanguage : English\nDefault : Yes\nForced : No\n\nAudio #1\nID : 2\nFormat : AC-3\nFormat/Info : Audio Coding 3\nMode extension : CM (complete main)\nFormat settings, Endianness : Big\nCodec ID : A_AC3\nDuration : 2h 27mn\nBit rate mode : Constant\nBit rate : 640 Kbps\nChannel(s) : 6 channels\nChannel positions : Front: L C R, Side: L R, LFE\nSampling rate : 48.0 KHz\nFrame rate : 31.250 fps (1536 spf)\nCompression mode : Lossy\nStream size : 676 MiB (12%)\nTitle : Bluray ~{PHDR}~\nLanguage : Hindi\nDefault : Yes\nForced : No\n\nAudio #2\nID : 3\nFormat : AC-3\nFormat/Info : Audio Coding 3\nMode extension : CM (complete main)\nFormat settings, Endianness : Big\nCodec ID : A_AC3\nDuration : 2h 27mn\nBit rate mode : Constant\nBit rate : 640 Kbps\nChannel(s) : 6 channels\nChannel positions : Front: L C R, Side: L R, LFE\nSampling rate : 48.0 KHz\nFrame rate : 31.250 fps (1536 spf)\nCompression mode : Lossy\nStream size : 676 MiB (12%)\nTitle : Bluray ~{PHDR}~\nLanguage : English\nDefault : No\nForced : No\n\nText\nID : 4\nFormat : PGS\nMuxing mode : zlib\nCodec ID : S_HDMV/PGS\nCodec ID/Info : Picture based subtitle format used on BDs/HD-DVDs\nDuration : 2h 26mn\nBit rate : 11.4 Kbps\nCount of elements : 4210\nStream size : 12.0 MiB (0%)\nTitle : Bluray SDH\nLanguage : English\nDefault : Yes\nForced : No\n\nMenu : YES With NAME\n \nhttps://extraimago.com/image/w3U3\nhttps://extraimago.com/image/w3Ub\nhttps://extraimago.com/image/w3Uh\nhttps://extraimago.com/image/w3Ud\nhttps://extraimago.com/image/w3UI\nhttps://extraimago.com/image/w3Ul\nhttps://extraimago.com/image/w3Ui\nhttps://extraimago.com/image/w3Um\nhttps://extraimago.com/image/w3UR\nhttps://extraimago.com/image/w3UQ\nhttps://extraimago.com/image/w3UL\nhttps://extraimago.com/image/w3Uy\nhttps://extraimago.com/image/w3Uq\nhttps://extraimago.com/image/w3US\nhttps://extraimago.com/image/w3UO\nhttps://extraimago.com/image/w3UE",
  "parsed": {
    "xt": "urn:btih:e95e45b9adb6d6b5366b092654bc1bfe49facc20",
    "dn": "Captain America Civil War (2016) 720p[Dual Audio]",
    "tr": [
      "udp://exodus.desync.com:6969",
      "udp://open.demonii.com:1337",
      "udp://tracker.coppersurfer.tk:6969",
      "udp://tracker.leechers-paradise.org:6969",
      "udp://zer0day.ch:1337"
    ],
    "infoHash": "e95e45b9adb6d6b5366b092654bc1bfe49facc20",
    "infoHashBuffer": {
      "type": "Buffer",
      "data": [
        233,
        94,
        69,
        185,
        173,
        182,
        214,
        181,
        54,
        107,
        9,
        38,
        84,
        188,
        27,
        254,
        73,
        250,
        204,
        32
      ]
    },
    "name": "Captain America Civil War (2016) 720p[Dual Audio]",
    "announce": [
      "udp://exodus.desync.com:6969",
      "udp://open.demonii.com:1337",
      "udp://tracker.coppersurfer.tk:6969",
      "udp://tracker.leechers-paradise.org:6969",
      "udp://zer0day.ch:1337"
    ],
    "urlList": []
  },
  "previous": 104,
  "peers": 44,
  "last_updated": "2016-12-25T17:01:53.176Z"
}